<svg width="49" height="15" viewBox="0 0 49 15" fill="none" xmlns="http://www.w3.org/2000/svg">
<path d="M21.2333 14.7836H17.2639L19.7466 0.263184H23.7158L21.2333 14.7836Z" fill="#00579F"/>
<path d="M35.6225 0.618191C34.8396 0.324391 33.5978 0 32.0623 0C28.1425 0 25.3821 1.97714 25.3652 4.80386C25.3327 6.88941 27.3415 8.04777 28.844 8.74316C30.3797 9.45374 30.9017 9.91754 30.9017 10.5509C30.8861 11.5237 29.6608 11.9721 28.518 11.9721C26.9332 11.9721 26.0841 11.7409 24.7937 11.1997L24.271 10.9677L23.7156 14.2272C24.6465 14.6284 26.3617 14.9844 28.1425 15C32.3074 15 35.0189 13.0535 35.051 10.0411C35.0669 8.38818 34.0061 7.12161 31.7192 6.08664C30.3309 5.42226 29.4806 4.97427 29.4806 4.29449C29.4969 3.6765 30.1998 3.04353 31.7669 3.04353C33.0573 3.01252 34.0054 3.30591 34.7237 3.59951L35.0827 3.7537L35.6225 0.618191Z" fill="#00579F"/>
<path d="M40.8981 9.63952C41.225 8.80534 42.4829 5.57683 42.4829 5.57683C42.4664 5.60783 42.8091 4.72726 43.0051 4.18667L43.2825 5.43784C43.2825 5.43784 44.0342 8.91354 44.1974 9.63952C43.5771 9.63952 41.6821 9.63952 40.8981 9.63952ZM45.7978 0.263184H42.7275C41.7807 0.263184 41.0614 0.525571 40.6528 1.46795L34.7569 14.7834H38.9218C38.9218 14.7834 39.6075 12.9912 39.7549 12.6052C40.2118 12.6052 44.2634 12.6052 44.8512 12.6052C44.9651 13.115 45.3248 14.7834 45.3248 14.7834H49L45.7978 0.263184Z" fill="#00579F"/>
<path d="M13.9486 0.263184L10.0613 10.1647L9.6365 8.15656C8.91782 5.83942 6.66389 3.3219 4.14862 2.07012L7.70924 14.7682H11.9067L18.1458 0.263184H13.9486Z" fill="#00579F"/>
<path d="M6.45162 0.263184H0.0653342L0 0.556572C4.9817 1.76154 8.28099 4.66607 9.63651 8.15718L8.24821 1.48376C8.01965 0.556367 7.31725 0.293775 6.45162 0.263184Z" fill="#FAA61A"/>
</svg>
