<svg width="381" height="98" viewBox="0 0 381 98" fill="none" xmlns="http://www.w3.org/2000/svg">
<path d="M54.448 44.352C54.448 45.888 54.352 47.488 54.16 49.152H17.008C17.264 52.48 18.32 55.04 20.176 56.832C22.096 58.56 24.432 59.424 27.184 59.424C31.28 59.424 34.128 57.696 35.728 54.24H53.2C52.304 57.76 50.672 60.928 48.304 63.744C46 66.56 43.088 68.768 39.568 70.368C36.048 71.968 32.112 72.768 27.76 72.768C22.512 72.768 17.84 71.648 13.744 69.408C9.648 67.168 6.448 63.968 4.144 59.808C1.84 55.648 0.688 50.784 0.688 45.216C0.688 39.648 1.808 34.784 4.048 30.624C6.352 26.464 9.552 23.264 13.648 21.024C17.744 18.784 22.448 17.664 27.76 17.664C32.944 17.664 37.552 18.752 41.584 20.928C45.616 23.104 48.752 26.208 50.992 30.24C53.296 34.272 54.448 38.976 54.448 44.352ZM37.648 40.032C37.648 37.216 36.688 34.976 34.768 33.312C32.848 31.648 30.448 30.816 27.568 30.816C24.816 30.816 22.48 31.616 20.56 33.216C18.704 34.816 17.552 37.088 17.104 40.032H37.648ZM104.388 31.488V45.12H62.1483V31.488H104.388ZM140.588 72.768C135.916 72.768 131.756 71.968 128.108 70.368C124.46 68.768 121.58 66.592 119.468 63.84C117.356 61.024 116.172 57.888 115.916 54.432H132.14C132.332 56.288 133.196 57.792 134.732 58.944C136.268 60.096 138.156 60.672 140.396 60.672C142.444 60.672 144.012 60.288 145.1 59.52C146.252 58.688 146.828 57.632 146.828 56.352C146.828 54.816 146.028 53.696 144.428 52.992C142.828 52.224 140.236 51.392 136.652 50.496C132.812 49.6 129.612 48.672 127.052 47.712C124.492 46.688 122.284 45.12 120.428 43.008C118.572 40.832 117.644 37.92 117.644 34.272C117.644 31.2 118.476 28.416 120.14 25.92C121.868 23.36 124.364 21.344 127.628 19.872C130.956 18.4 134.892 17.664 139.436 17.664C146.156 17.664 151.436 19.328 155.276 22.656C159.18 25.984 161.42 30.4 161.996 35.904H146.828C146.572 34.048 145.74 32.576 144.332 31.488C142.988 30.4 141.196 29.856 138.956 29.856C137.036 29.856 135.564 30.24 134.54 31.008C133.516 31.712 133.004 32.704 133.004 33.984C133.004 35.52 133.804 36.672 135.404 37.44C137.068 38.208 139.628 38.976 143.084 39.744C147.052 40.768 150.284 41.792 152.78 42.816C155.276 43.776 157.452 45.376 159.308 47.616C161.228 49.792 162.22 52.736 162.284 56.448C162.284 59.584 161.388 62.4 159.596 64.896C157.868 67.328 155.34 69.248 152.012 70.656C148.748 72.064 144.94 72.768 140.588 72.768ZM205.255 17.856C211.399 17.856 216.327 19.904 220.039 24C223.751 28.032 225.607 33.6 225.607 40.704V72H209.287V42.912C209.287 39.328 208.359 36.544 206.503 34.56C204.647 32.576 202.151 31.584 199.015 31.584C195.879 31.584 193.383 32.576 191.527 34.56C189.671 36.544 188.743 39.328 188.743 42.912V72H172.327V0.959999H188.743V25.632C190.407 23.264 192.679 21.376 195.559 19.968C198.439 18.56 201.671 17.856 205.255 17.856ZM261.399 72.768C256.151 72.768 251.415 71.648 247.191 69.408C243.031 67.168 239.735 63.968 237.303 59.808C234.935 55.648 233.751 50.784 233.751 45.216C233.751 39.712 234.967 34.88 237.398 30.72C239.831 26.496 243.159 23.264 247.383 21.024C251.607 18.784 256.343 17.664 261.591 17.664C266.839 17.664 271.575 18.784 275.799 21.024C280.023 23.264 283.351 26.496 285.783 30.72C288.215 34.88 289.431 39.712 289.431 45.216C289.431 50.72 288.183 55.584 285.687 59.808C283.255 63.968 279.895 67.168 275.607 69.408C271.383 71.648 266.647 72.768 261.399 72.768ZM261.399 58.56C264.535 58.56 267.191 57.408 269.367 55.104C271.607 52.8 272.727 49.504 272.727 45.216C272.727 40.928 271.639 37.632 269.463 35.328C267.351 33.024 264.727 31.872 261.591 31.872C258.391 31.872 255.735 33.024 253.623 35.328C251.511 37.568 250.455 40.864 250.455 45.216C250.455 49.504 251.479 52.8 253.527 55.104C255.639 57.408 258.263 58.56 261.399 58.56ZM314.556 26.016C316.156 23.52 318.364 21.504 321.18 19.968C323.996 18.432 327.292 17.664 331.068 17.664C335.484 17.664 339.484 18.784 343.068 21.024C346.652 23.264 349.468 26.464 351.516 30.624C353.628 34.784 354.684 39.616 354.684 45.12C354.684 50.624 353.628 55.488 351.516 59.712C349.468 63.872 346.652 67.104 343.068 69.408C339.484 71.648 335.484 72.768 331.068 72.768C327.356 72.768 324.06 72 321.18 70.464C318.364 68.928 316.156 66.944 314.556 64.512V97.536H298.14V18.432H314.556V26.016ZM337.98 45.12C337.98 41.024 336.828 37.824 334.524 35.52C332.284 33.152 329.5 31.968 326.172 31.968C322.908 31.968 320.124 33.152 317.82 35.52C315.58 37.888 314.46 41.12 314.46 45.216C314.46 49.312 315.58 52.544 317.82 54.912C320.124 57.28 322.908 58.464 326.172 58.464C329.436 58.464 332.22 57.28 334.524 54.912C336.828 52.48 337.98 49.216 337.98 45.12Z" fill="currentColor"/>
<path d="M370.976 72.768C368.096 72.768 365.728 71.936 363.872 70.272C362.08 68.544 361.184 66.432 361.184 63.936C361.184 61.376 362.08 59.232 363.872 57.504C365.728 55.776 368.096 54.912 370.976 54.912C373.792 54.912 376.096 55.776 377.888 57.504C379.744 59.232 380.672 61.376 380.672 63.936C380.672 66.432 379.744 68.544 377.888 70.272C376.096 71.936 373.792 72.768 370.976 72.768Z" fill="#FF624C"/>
</svg>
